{
  "accessors": [
    {
      "bufferView": 2,
      "componentType": 5126,
      "count": 175,
      "max": [
        1.3230899572372437,
        1.3230899572372437,
        0.21486000716686249
      ],
      "min": [
        -1.3230899572372437,
        -1.3230899572372437,
        0.010850000195205212
      ],
      "type": "VEC3"
    },
    {
      "bufferView": 2,
      "byteOffset": 2100,
      "componentType": 5126,
      "count": 175,
      "max": [
        0.69366657733917236,
        0.74526000022888184,
        1
      ],
      "min": [
        -0.75572896003723145,
        -0.74174368381500244,
        -0.6924365758895874
      ],
      "type": "VEC3"
    },
    {
      "bufferView": 3,
      "componentType": 5126,
      "count": 175,
      "max": [
        1,
        0.00010696405661292374,
        0.70772296190261841,
        1
      ],
      "min": [
        0.6544838547706604,
        -0.00014578315312974155,
        -0.75607609748840332,
        -1
      ],
      "type": "VEC4"
    },
    {
      "bufferView": 1,
      "componentType": 5126,
      "count": 175,
      "max": [
        1,
        1
      ],
      "min": [
        0,
        0
      ],
      "type": "VEC2"
    },
    {
      "bufferView": 0,
      "componentType": 5125,
      "count": 267,
      "max": [
        174
      ],
      "min": [
        0
      ],
      "type": "SCALAR"
    },
    {
      "bufferView": 4,
      "componentType": 5126,
      "count": 140,
      "max": [
        5.8333301544189453
      ],
      "min": [
        0.041669998317956924
      ],
      "type": "SCALAR"
    },
    {
      "bufferView": 5,
      "componentType": 5126,
      "count": 140,
      "max": [
        0,
        0,
        0.99993997812271118,
        1
      ],
      "min": [
        0,
        0,
        -0.99993997812271118,
        0.011300000362098217
      ],
      "type": "VEC4"
    }
  ],
  "animations": [
    {
      "channels": [
        {
          "sampler": 0,
          "target": {
            "node": 3,
            "path": "rotation"
          }
        }
      ],
      "name": "PlaneAction",
      "samplers": [
        {
          "input": 5,
          "interpolation": "LINEAR",
          "output": 6
        }
      ]
    }
  ],
  "asset": {
    "extras": {
      "author": "Noob Model :D (https://sketchfab.com/koontanch)",
      "license": "CC-BY-4.0 (http://creativecommons.org/licenses/by/4.0/)",
      "source": "https://sketchfab.com/3d-models/magic-ring-green-4ed3858327434583b2bb9e8e4a641a9a",
      "title": "Magic Ring - Green"
    },
    "generator": "Sketchfab-4.41.0",
    "version": "2.0"
  },
  "bufferViews": [
    {
      "buffer": 0,
      "byteLength": 1068,
      "byteOffset": 0,
      "name": "floatBufferViews",
      "target": 34963
    },
    {
      "buffer": 0,
      "byteLength": 1400,
      "byteOffset": 1068,
      "byteStride": 8,
      "name": "floatBufferViews",
      "target": 34962
    },
    {
      "buffer": 0,
      "byteLength": 4200,
      "byteOffset": 2468,
      "byteStride": 12,
      "name": "floatBufferViews",
      "target": 34962
    },
    {
      "buffer": 0,
      "byteLength": 2800,
      "byteOffset": 6668,
      "byteStride": 16,
      "name": "floatBufferViews",
      "target": 34962
    },
    {
      "buffer": 0,
      "byteLength": 560,
      "byteOffset": 9468,
      "name": "floatBufferViews"
    },
    {
      "buffer": 0,
      "byteLength": 2240,
      "byteOffset": 10028,
      "byteStride": 16,
      "name": "floatBufferViews"
    }
  ],
  "buffers": [
    {
      "byteLength": 12268,
      "uri": "scene.bin"
    }
  ],
  "extensionsRequired": [
    "KHR_materials_pbrSpecularGlossiness"
  ],
  "extensionsUsed": [
    "KHR_materials_pbrSpecularGlossiness"
  ],
  "images": [
    {
      "uri": "textures/Material.001_diffuse.png"
    }
  ],
  "materials": [
    {
      "alphaMode": "BLEND",
      "doubleSided": true,
      "emissiveFactor": [
        0,
        0,
        0
      ],
      "extensions": {
        "KHR_materials_pbrSpecularGlossiness": {
          "diffuseFactor": [
            1,
            1,
            1,
            1
          ],
          "diffuseTexture": {
            "index": 0,
            "texCoord": 0
          },
          "glossinessFactor": 0,
          "specularFactor": [
            0.01,
            0.01,
            0.01
          ]
        }
      },
      "name": "Material.001"
    }
  ],
  "meshes": [
    {
      "name": "Plane_0",
      "primitives": [
        {
          "attributes": {
            "NORMAL": 1,
            "POSITION": 0,
            "TANGENT": 2,
            "TEXCOORD_0": 3
          },
          "indices": 4,
          "material": 0,
          "mode": 4
        }
      ]
    }
  ],
  "nodes": [
    {
      "children": [
        1
      ],
      "name": "RootNode (gltf orientation matrix)",
      "rotation": [
        -0.70710678118654746,
        -0,
        -0,
        0.70710678118654757
      ]
    },
    {
      "children": [
        2
      ],
      "name": "RootNode (model correction matrix)"
    },
    {
      "children": [
        3
      ],
      "name": "Root"
    },
    {
      "children": [
        4
      ],
      "name": "Plane",
      "scale": [
        2.9803099632263184,
        2.9803099632263184,
        2.9803099632263184
      ]
    },
    {
      "mesh": 0,
      "name": "Plane_0"
    }
  ],
  "samplers": [
    {
      "magFilter": 9729,
      "minFilter": 9987,
      "wrapS": 10497,
      "wrapT": 10497
    }
  ],
  "scene": 0,
  "scenes": [
    {
      "name": "OSG_Scene",
      "nodes": [
        0
      ]
    }
  ],
  "textures": [
    {
      "sampler": 0,
      "source": 0
    }
  ]
}

